<svg width="29" height="29" viewBox="0 0 29 29" fill="none" xmlns="http://www.w3.org/2000/svg">
<g id="ion:calendar">
<path id="Vector" d="M27.1875 7.24992C27.1875 6.28851 26.8056 5.36647 26.1258 4.68665C25.4459 4.00684 24.5239 3.62492 23.5625 3.62492H22.6562V2.74416C22.6562 2.25648 22.2813 1.83791 21.7936 1.81355C21.6711 1.80765 21.5486 1.82668 21.4337 1.8695C21.3187 1.91232 21.2136 1.97804 21.1248 2.06267C21.036 2.1473 20.9653 2.24907 20.917 2.36183C20.8687 2.4746 20.8438 2.59599 20.8438 2.71867V3.62492H8.15625V2.74416C8.15625 2.25648 7.78129 1.83791 7.29361 1.81355C7.17108 1.80765 7.04862 1.82668 6.93366 1.8695C6.8187 1.91232 6.71364 1.97804 6.62482 2.06267C6.53601 2.1473 6.46531 2.24907 6.41699 2.36183C6.36868 2.4746 6.34376 2.59599 6.34375 2.71867V3.62492H5.4375C4.47609 3.62492 3.55406 4.00684 2.87424 4.68665C2.19442 5.36647 1.8125 6.28851 1.8125 7.24992V7.9296C1.8125 7.98969 1.83637 8.04732 1.87886 8.08981C1.92135 8.1323 1.97897 8.15617 2.03906 8.15617H26.9609C27.021 8.15617 27.0787 8.1323 27.1211 8.08981C27.1636 8.04732 27.1875 7.98969 27.1875 7.9296V7.24992ZM1.8125 23.5624C1.8125 24.5238 2.19442 25.4459 2.87424 26.1257C3.55406 26.8055 4.47609 27.1874 5.4375 27.1874H23.5625C24.5239 27.1874 25.4459 26.8055 26.1258 26.1257C26.8056 25.4459 27.1875 24.5238 27.1875 23.5624V10.1386C27.1875 10.0935 27.1696 10.0503 27.1377 10.0184C27.1059 9.98657 27.0626 9.96867 27.0176 9.96867H1.98242C1.93736 9.96867 1.89414 9.98657 1.86227 10.0184C1.8304 10.0503 1.8125 10.0935 1.8125 10.1386V23.5624ZM21.2969 11.7812C21.5657 11.7812 21.8286 11.8609 22.0521 12.0103C22.2757 12.1596 22.4499 12.3719 22.5528 12.6203C22.6557 12.8687 22.6826 13.142 22.6301 13.4057C22.5777 13.6694 22.4482 13.9117 22.2581 14.1018C22.068 14.2919 21.8258 14.4213 21.5621 14.4738C21.2984 14.5262 21.0251 14.4993 20.7767 14.3964C20.5283 14.2936 20.316 14.1193 20.1666 13.8958C20.0172 13.6722 19.9375 13.4094 19.9375 13.1405C19.9375 12.78 20.0807 12.4342 20.3357 12.1793C20.5906 11.9244 20.9363 11.7812 21.2969 11.7812ZM21.2969 16.3124C21.5657 16.3124 21.8286 16.3921 22.0521 16.5415C22.2757 16.6909 22.4499 16.9032 22.5528 17.1516C22.6557 17.4 22.6826 17.6733 22.6301 17.937C22.5777 18.2007 22.4482 18.4429 22.2581 18.633C22.068 18.8231 21.8258 18.9526 21.5621 19.005C21.2984 19.0575 21.0251 19.0306 20.7767 18.9277C20.5283 18.8248 20.316 18.6506 20.1666 18.427C20.0172 18.2035 19.9375 17.9406 19.9375 17.6718C19.9375 17.3113 20.0807 16.9655 20.3357 16.7106C20.5906 16.4556 20.9363 16.3124 21.2969 16.3124ZM16.7656 11.7812C17.0345 11.7812 17.2973 11.8609 17.5209 12.0103C17.7444 12.1596 17.9186 12.3719 18.0215 12.6203C18.1244 12.8687 18.1513 13.142 18.0989 13.4057C18.0464 13.6694 17.917 13.9117 17.7268 14.1018C17.5367 14.2919 17.2945 14.4213 17.0308 14.4738C16.7671 14.5262 16.4938 14.4993 16.2454 14.3964C15.997 14.2936 15.7847 14.1193 15.6353 13.8958C15.486 13.6722 15.4062 13.4094 15.4062 13.1405C15.4062 12.78 15.5495 12.4342 15.8044 12.1793C16.0593 11.9244 16.4051 11.7812 16.7656 11.7812ZM16.7656 16.3124C17.0345 16.3124 17.2973 16.3921 17.5209 16.5415C17.7444 16.6909 17.9186 16.9032 18.0215 17.1516C18.1244 17.4 18.1513 17.6733 18.0989 17.937C18.0464 18.2007 17.917 18.4429 17.7268 18.633C17.5367 18.8231 17.2945 18.9526 17.0308 19.005C16.7671 19.0575 16.4938 19.0306 16.2454 18.9277C15.997 18.8248 15.7847 18.6506 15.6353 18.427C15.486 18.2035 15.4062 17.9406 15.4062 17.6718C15.4062 17.3113 15.5495 16.9655 15.8044 16.7106C16.0593 16.4556 16.4051 16.3124 16.7656 16.3124ZM16.7656 20.8437C17.0345 20.8437 17.2973 20.9234 17.5209 21.0728C17.7444 21.2221 17.9186 21.4344 18.0215 21.6828C18.1244 21.9312 18.1513 22.2045 18.0989 22.4682C18.0464 22.7319 17.917 22.9742 17.7268 23.1643C17.5367 23.3544 17.2945 23.4838 17.0308 23.5363C16.7671 23.5887 16.4938 23.5618 16.2454 23.4589C15.997 23.3561 15.7847 23.1818 15.6353 22.9583C15.486 22.7347 15.4062 22.4719 15.4062 22.203C15.4062 21.8425 15.5495 21.4967 15.8044 21.2418C16.0593 20.9869 16.4051 20.8437 16.7656 20.8437ZM12.2344 16.3124C12.5032 16.3124 12.7661 16.3921 12.9896 16.5415C13.2132 16.6909 13.3874 16.9032 13.4903 17.1516C13.5932 17.4 13.6201 17.6733 13.5676 17.937C13.5152 18.2007 13.3857 18.4429 13.1956 18.633C13.0055 18.8231 12.7633 18.9526 12.4996 19.005C12.2359 19.0575 11.9626 19.0306 11.7142 18.9277C11.4658 18.8248 11.2535 18.6506 11.1041 18.427C10.9547 18.2035 10.875 17.9406 10.875 17.6718C10.875 17.3113 11.0182 16.9655 11.2732 16.7106C11.5281 16.4556 11.8738 16.3124 12.2344 16.3124ZM12.2344 20.8437C12.5032 20.8437 12.7661 20.9234 12.9896 21.0728C13.2132 21.2221 13.3874 21.4344 13.4903 21.6828C13.5932 21.9312 13.6201 22.2045 13.5676 22.4682C13.5152 22.7319 13.3857 22.9742 13.1956 23.1643C13.0055 23.3544 12.7633 23.4838 12.4996 23.5363C12.2359 23.5887 11.9626 23.5618 11.7142 23.4589C11.4658 23.3561 11.2535 23.1818 11.1041 22.9583C10.9547 22.7347 10.875 22.4719 10.875 22.203C10.875 21.8425 11.0182 21.4967 11.2732 21.2418C11.5281 20.9869 11.8738 20.8437 12.2344 20.8437ZM7.70312 16.3124C7.97198 16.3124 8.2348 16.3921 8.45835 16.5415C8.6819 16.6909 8.85614 16.9032 8.95902 17.1516C9.06191 17.4 9.08883 17.6733 9.03638 17.937C8.98393 18.2007 8.85446 18.4429 8.66435 18.633C8.47424 18.8231 8.23202 18.9526 7.96833 19.005C7.70463 19.0575 7.43131 19.0306 7.18291 18.9277C6.93452 18.8248 6.72222 18.6506 6.57285 18.427C6.42348 18.2035 6.34375 17.9406 6.34375 17.6718C6.34375 17.3113 6.48697 16.9655 6.7419 16.7106C6.99683 16.4556 7.3426 16.3124 7.70312 16.3124ZM7.70312 20.8437C7.97198 20.8437 8.2348 20.9234 8.45835 21.0728C8.6819 21.2221 8.85614 21.4344 8.95902 21.6828C9.06191 21.9312 9.08883 22.2045 9.03638 22.4682C8.98393 22.7319 8.85446 22.9742 8.66435 23.1643C8.47424 23.3544 8.23202 23.4838 7.96833 23.5363C7.70463 23.5887 7.43131 23.5618 7.18291 23.4589C6.93452 23.3561 6.72222 23.1818 6.57285 22.9583C6.42348 22.7347 6.34375 22.4719 6.34375 22.203C6.34375 21.8425 6.48697 21.4967 6.7419 21.2418C6.99683 20.9869 7.3426 20.8437 7.70312 20.8437Z" fill="#6B6B6B"/>
</g>
</svg>
